<?xml version="1.0" standalone="no"?><!DOCTYPE svg PUBLIC "-//W3C//DTD SVG 1.1//EN" "http://www.w3.org/Graphics/SVG/1.1/DTD/svg11.dtd"><svg t="1781555788538" class="icon" viewBox="0 0 1024 1024" version="1.1" xmlns="http://www.w3.org/2000/svg" p-id="2574" xmlns:xlink="http://www.w3.org/1999/xlink" width="24" height="24"><path d="M425.1136 192.512l0.5632 135.2192 0.1024 20.5824 0.1024 20.3776v0.1536l0.6144 137.5232-253.2352-158.0032L425.1136 192.512m23.1936-59.4432c-3.072 0-6.2464 0.8192-9.216 2.6624L119.7568 333.312c-11.1104 6.8608-11.1104 22.9888-0.0512 29.9008l321.024 200.2944c2.9696 1.8432 6.144 2.7136 9.2672 2.7136 9.216 0 17.664-7.3728 17.6128-17.7152l-0.768-179.8144h184.4736c131.7888 0 242.1248 104.2432 244.6336 235.9808 2.56 134.8096-106.3424 245.2992-240.5888 245.2992H107.52c-11.3152 0-20.48 9.1648-20.48 20.48s9.1648 20.48 20.48 20.48h547.84c154.88 0 281.6-126.72 281.6-281.6s-126.72-281.6-281.6-281.6H466.688L465.92 150.6304c-0.0512-10.2912-8.4992-17.5616-17.6128-17.5616z" fill="#FF9494" p-id="2575"></path></svg>