<?xml version="1.0" standalone="no"?><!DOCTYPE svg PUBLIC "-//W3C//DTD SVG 1.1//EN" "http://www.w3.org/Graphics/SVG/1.1/DTD/svg11.dtd"><svg t="1781555498135" class="icon" viewBox="0 0 1024 1024" version="1.1" xmlns="http://www.w3.org/2000/svg" p-id="4911" xmlns:xlink="http://www.w3.org/1999/xlink" width="24" height="24"><path d="M142.222222 924.444444a56.888889 56.888889 0 0 1-56.888889-56.888888V170.666667a56.888889 56.888889 0 0 1 56.888889-56.888889h497.777778a28.444444 28.444444 0 1 1 0 56.888889H142.222222v696.888889h696.888889V540.444444a28.444444 28.444444 0 1 1 56.888889 0v327.111112a56.888889 56.888889 0 0 1-56.888889 56.888888H142.222222z m322.645334-295.623111l-140.8-140.8a28.444444 28.444444 0 0 1 40.220444-40.220444l120.689778 120.675555 402.275555-402.261333a28.444444 28.444444 0 0 1 40.220445 40.220445l-422.4 422.4a28.359111 28.359111 0 0 1-40.206222-0.028445v0.014222z" fill="#1afa29" p-id="4912"></path></svg>